<?xml version="1.0" encoding="UTF-8"?>
<svg xmlns="http://www.w3.org/2000/svg" version="1.1" viewBox="0 0 300 300">
  <!-- Generator: Adobe Illustrator 29.6.1, SVG Export Plug-In . SVG Version: 2.1.1 Build 9)  -->
  <defs>
    <style>
      .st0 {
        fill: #fff1b4;
      }

      .st1 {
        fill: #22b573;
      }

      .st1, .st2, .st3, .st4, .st5 {
        stroke: #fff;
        stroke-miterlimit: 10;
      }

      .st1, .st4 {
        stroke-width: 12.7px;
      }

      .st2 {
        stroke-width: 12px;
      }

      .st2, .st3, .st6, .st7, .st8, .st9, .st10, .st11, .st12, .st13, .st14 {
        display: none;
      }

      .st2, .st3, .st5 {
        fill: none;
      }

      .st3 {
        stroke-width: 16px;
      }

      .st6 {
        font-family: SFProDisplay-Medium, 'SF Pro Display';
        font-size: 110.94px;
        font-weight: 500;
      }

      .st6, .st11 {
        fill: #00db00;
      }

      .st15, .st9 {
        fill: #fff;
      }

      .st7 {
        fill: #7500b4;
      }

      .st8 {
        fill: #078a00;
      }

      .st10 {
        fill: #353aff;
      }

      .st16 {
        fill: #06e900;
      }

      .st17 {
        fill: #666;
      }

      .st18 {
        fill: #ff180a;
      }

      .st19 {
        fill: #1a1a1a;
      }

      .st12 {
        fill: #ffa300;
      }

      .st13 {
        fill: #355cff;
      }

      .st4 {
        fill: #2d68ff;
      }

      .st5 {
        stroke-width: 13px;
      }
    </style>
  </defs>
  <g id="Background">
    <g class="st14">
      <rect class="st19" x="150" width="150" height="300"/>
    </g>
    <g class="st14">
      <rect class="st0" y="0" width="150" height="300"/>
    </g>
    <rect class="st11" y="0" width="300" height="300"/>
    <rect class="st12" width="300" height="300"/>
    <rect class="st13" width="300" height="300"/>
    <g class="st14">
      <path class="st15" d="M113.16,118.56c-6.43,13.74,20.24,37.49,36.84,51.23,16.6-13.74,43.27-37.49,36.84-51.23"/>
      <path class="st15" d="M150,220.54l-24.93-20.63c-21.79-18.04-67.14-55.58-47.32-97.92,9.16-19.55,32.43-27.97,51.98-18.83,9.86,4.62,16.89,12.82,20.26,22.33,3.37-9.51,10.41-17.72,20.27-22.33,19.55-9.15,42.82-.72,51.98,18.83,19.82,42.34-25.52,79.88-47.32,97.92l-24.93,20.63Z"/>
    </g>
    <ellipse class="st11" cx="148.92" cy="164.07" rx="3.81" ry="4.28"/>
    <g class="st14">
      <rect class="st18" x="150" width="150" height="300"/>
    </g>
    <g class="st14">
      <rect class="st16" x="0" y="0" width="150" height="300"/>
    </g>
    <g class="st14">
      <path class="st15" d="M173.36,190.05h-46.29l-9.93,38.09h-30.65l46.73-155.71h36.26l46.73,155.71h-33.13l-9.71-38.09ZM167.21,166.09l-16.19-63.13h-1.4l-16.4,63.13h33.99Z"/>
    </g>
    <rect class="st10" y="0" width="300" height="300"/>
    <rect class="st8" x="0" y="0" width="300" height="300"/>
    <rect class="st7" y="0" width="300" height="300"/>
    <rect class="st17" width="300" height="300"/>
  </g>
  <g id="Ebene_1">
    <rect class="st4" x="145.23" y="72.15" width="75.18" height="155.69" rx="23.5" ry="23.5" transform="translate(365.64 300) rotate(180)"/>
    <rect class="st1" x="79.59" y="72.15" width="75.18" height="155.69" rx="23.5" ry="23.5"/>
    <rect class="st9" x="99.47" y="125.23" width="101.05" height="92.17" rx="11.18" ry="11.18"/>
    <rect class="st2" x="120.42" y="77.01" width="59.17" height="133.55" rx="28.31" ry="28.31"/>
    <rect class="st9" x="67" y="154" width="49" height="60" rx="12" ry="12"/>
    <rect class="st9" x="125.5" y="120" width="49" height="94" rx="12" ry="12"/>
    <rect class="st9" x="184" y="81" width="49" height="133" rx="12" ry="12"/>
    <circle class="st9" cx="149.87" cy="149.62" r="79.62"/>
    <text class="st6" transform="translate(115.79 189.77)"><tspan x="0" y="0">$</tspan></text>
    <path class="st9" d="M157.71,74.63l16.36,50.37h52.96c7.64,0,10.82,9.78,4.64,14.27l-42.84,31.13,16.36,50.37c2.36,7.27-5.96,13.31-12.14,8.82l-42.84-31.13-42.84,31.13c-6.18,4.49-14.5-1.55-12.14-8.82l16.36-50.37-42.84-31.13c-6.18-4.49-3.01-14.27,4.64-14.27h52.96s16.36-50.37,16.36-50.37c2.36-7.27,12.64-7.27,15.01,0Z"/>
    <rect class="st3" x="84.68" y="107.36" width="129.64" height="129.64" rx="33.86" ry="33.86"/>
    <rect class="st12" x="131.54" y="98.17" width="35.04" height="21.02"/>
    <g class="st14">
      <path class="st15" d="M157.46,145.47V57c0-10.81-16.8-10.83-16.8,0v88.47c0,10.81,16.8,10.83,16.8,0h0Z"/>
    </g>
    <g class="st14">
      <path class="st15" d="M175.59,71.52c-6.72-7.01-13.43-14.01-20.15-21.02-7.5-7.82-19.36,4.07-11.88,11.88,6.72,7.01,13.43,14.01,20.15,21.02,7.5,7.82,19.36-4.07,11.88-11.88h0Z"/>
    </g>
    <g class="st14">
      <path class="st15" d="M134.42,83.4c6.72-7.01,13.43-14.01,20.15-21.02,7.48-7.81-4.38-19.7-11.88-11.88-6.72,7.01-13.43,14.01-20.15,21.02-7.48,7.81,4.38,19.7,11.88,11.88h0Z"/>
    </g>
    <g>
      <path class="st5" d="M183.48,169.25c-16.17,24.09-39.55,24.32-56.91-.26"/>
      <polygon class="st15" points="199.45 180.81 164.65 162.16 191.37 154.08 199.45 180.81"/>
      <polygon class="st15" points="110.95 181.04 145.16 161.33 118.2 154.08 110.95 181.04"/>
    </g>
    <g>
      <path class="st5" d="M126.62,129.8c16.17-24.09,39.55-24.32,56.91.26"/>
      <polygon class="st15" points="110.65 118.24 145.45 136.89 118.73 144.96 110.65 118.24"/>
      <polygon class="st15" points="199.15 118.01 164.94 137.72 191.89 144.96 199.15 118.01"/>
    </g>
  </g>
</svg>