<?xml version="1.0" encoding="UTF-8"?>
<svg xmlns="http://www.w3.org/2000/svg" version="1.1" viewBox="0 0 1024 1024">
  <defs>
    <style>
      .cls-1 {
        fill: #1a1a1a;
      }

      .cls-2 {
        display: none;
      }
    </style>
  </defs>
  <!-- Generator: Adobe Illustrator 28.7.8, SVG Export Plug-In . SVG Version: 1.2.0 Build 200)  -->
  <g>
    <g id="Ebene_1">
      <g class="cls-2">
        <path class="cls-1" d="M318.57,333.86v356.28c0,41.22,45.43,66.27,80.29,44.26l282.17-178.14c32.54-20.54,32.54-67.99,0-88.53l-282.17-178.14c-34.86-22-80.29,3.04-80.29,44.26Z"/>
      </g>
      <path class="cls-1" d="M381.99,742.46h2.49c34.5,0,50.48-15.98,50.48-50.48v-360.18c0-34.5-15.98-50.48-50.48-50.48h-2.49c-34.5,0-50.48,15.98-50.48,50.48v360.18c0,34.5,15.98,50.48,50.48,50.48Z"/>
      <path class="cls-1" d="M640.18,742.68h2.49c34.5,0,50.48-15.98,50.48-50.48v-360.18c0-34.5-15.98-50.48-50.48-50.48h-2.49c-34.5,0-50.48,15.98-50.48,50.48v360.18c0,34.5,15.98,50.48,50.48,50.48Z"/>
    </g>
  </g>
</svg>